HIERARCHY
ROOT hip
{
	OFFSET 0.000000 0.000000 0.000000 
	CHANNELS 6 Xposition Yposition Zposition Xrotation Zrotation Yrotation
	JOINT abdomen
	{
		OFFSET 0.000000 3.402643 0.000000 
		CHANNELS 3 Xrotation Zrotation Yrotation
		JOINT chest
		{
			OFFSET 0.000000 8.438565 -0.680529 
			CHANNELS 3 Xrotation Zrotation Yrotation
			JOINT neck
			{
				OFFSET 0.000000 10.207942 -0.272212 
				CHANNELS 3 Xrotation Zrotation Yrotation
				JOINT head
				{
					OFFSET 0.000000 3.130431 0.000000 
					CHANNELS 3 Xrotation Zrotation Yrotation
					End Site
					{
						OFFSET 0.000000 3.130435 0.000000 
					}
				}
			}
			JOINT lCollar
			{
				OFFSET 3.470700 6.669187 -0.816635 
				CHANNELS 3 Yrotation Zrotation Xrotation
				JOINT lShldr
				{
					OFFSET 3.198488 0.000000 0.000000 
					CHANNELS 3 Zrotation Yrotation Xrotation
					JOINT lForeArm
					{
						OFFSET 10.139888 0.000000 0.000000 
						CHANNELS 3 Yrotation Zrotation Xrotation
						JOINT lHand
						{
							OFFSET 8.370511 0.000000 0.000000 
							CHANNELS 3 Zrotation Yrotation Xrotation
							End Site
							{
								OFFSET 4.083176 0.000000 0.000000 
							}
						}
					}
				}
			}
			JOINT rCollar
			{
				OFFSET -3.470700 6.669187 -0.816635 
				CHANNELS 3 Yrotation Zrotation Xrotation
				JOINT rShldr
				{
					OFFSET -3.198488 0.000000 0.000000 
					CHANNELS 3 Zrotation Yrotation Xrotation
					JOINT rForeArm
					{
						OFFSET -10.139888 0.000000 0.000000 
						CHANNELS 3 Yrotation Zrotation Xrotation
						JOINT rHand
						{
							OFFSET -8.370511 0.000000 0.000000 
							CHANNELS 3 Zrotation Yrotation Xrotation
							End Site
							{
								OFFSET -4.083176 0.000000 0.000000 
							}
						}
					}
				}
			}
		}
	}
	JOINT lThigh
	{
		OFFSET 5.308129 -1.633274 1.361059 
		CHANNELS 3 Xrotation Zrotation Yrotation
		JOINT lShin
		{
			OFFSET -2.041588 -20.007561 0.000000 
			CHANNELS 3 Xrotation Zrotation Yrotation
			JOINT lFoot
			{
				OFFSET 0.000000 -19.190928 -1.224953 
				CHANNELS 3 Xrotation Yrotation Zrotation
				End Site
				{
					OFFSET 0.000000 -2.449906 4.627600 
				}
			}
		}
	}
	JOINT rThigh
	{
		OFFSET -5.308129 -1.633274 1.361059 
		CHANNELS 3 Xrotation Zrotation Yrotation
		JOINT rShin
		{
			OFFSET 2.041588 -20.007561 0.000000 
			CHANNELS 3 Xrotation Zrotation Yrotation
			JOINT rFoot
			{
				OFFSET 0.000000 -19.190928 -1.224953 
				CHANNELS 3 Xrotation Yrotation Zrotation
				End Site
				{
					OFFSET 0.000000 -2.449906 4.627600 
				}
			}
		}
	}
}
MOTION
Frames: 20
Frame Time: 0.016667
3.348869 45.779568 -0.797090 -1.471350 -5.388860 8.057520 -22.558100 4.137130 3.979090 15.291000 1.555910 2.483630 11.605891 -2.012908 -25.695854 14.515200 11.997500 -6.688540 2.000000 -2.000000 0.000000 91.089302 164.360001 -6.042730 38.477001 -0.321879 0.085123 0.049781 -0.040310 -151.473007 -2.000000 2.000000 0.000000 -75.068802 108.042000 37.648800 -48.750500 0.304992 0.102794 -0.128528 0.135242 165.626999 -8.788199 3.304206 -2.341893 30.299601 3.144423 2.127216 -16.657463 -4.085727 -1.511452 -4.764356 5.939328 -4.486487 24.337139 -2.933101 -1.852557 -15.635358 -10.123306 -3.766305 
3.361968 45.788300 -0.814152 -1.422400 -5.428020 8.717960 -22.249800 4.160690 4.152250 15.818600 1.527970 2.578500 11.526758 -1.635742 -26.011066 14.550300 12.121100 -6.786750 2.000000 -2.000000 0.000000 90.962898 165.005005 -6.431870 38.213299 -0.322269 0.084629 0.049523 -0.039304 -151.100998 -2.000000 2.000000 0.000000 -70.106300 108.055000 44.993999 -47.695801 0.306869 0.101117 -0.123406 0.131833 167.824005 -9.000481 3.309983 -2.626287 30.289059 3.147984 2.118567 -16.553461 -4.412454 -1.633734 -4.834972 5.957304 -4.817019 24.250261 -2.922339 -1.861240 -15.609877 -10.329864 -3.865103 
3.375921 45.794083 -0.809653 -1.452130 -5.554870 9.339150 -22.188200 4.322130 4.025820 15.652100 1.722190 2.528090 12.365928 -1.863706 -26.203218 15.191900 12.382600 -6.518040 2.000000 -2.000000 0.000000 90.299301 165.251999 -7.417630 38.125401 -0.322398 0.084464 0.049638 -0.039754 -151.266998 -2.000000 2.000000 0.000000 -65.409500 108.214996 53.082100 -46.787601 0.308460 0.099646 -0.119955 0.129371 169.337997 -9.197577 3.420830 -2.932747 30.390083 3.125387 2.130948 -16.504036 -4.707178 -1.728884 -4.650846 6.133758 -4.936542 23.984081 -2.918101 -1.834351 -15.524224 -10.750215 -4.008311 
3.389884 45.799747 -0.805157 -1.472080 -5.681730 9.969270 -22.126499 4.474670 3.904200 15.485400 1.916300 2.476560 13.216709 -2.095154 -26.406134 15.825000 12.641800 -6.245520 2.000000 -2.000000 0.000000 -90.344803 14.491800 171.606003 38.027699 -0.322542 0.084281 0.049753 -0.040204 -151.432999 -2.000000 2.000000 0.000000 -60.903801 108.575996 60.985001 -45.869598 0.310044 0.098133 -0.116592 0.126837 170.841995 -9.341410 3.530478 -3.222468 30.476988 3.140726 2.133907 -16.501278 -4.995631 -1.833162 -4.499527 6.311424 -5.039665 23.740231 -2.897288 -1.823858 -15.446128 -11.159463 -4.157094 
3.382088 45.809765 -0.809120 -1.433220 -5.838030 10.574700 -22.497200 4.199140 4.368190 15.057500 1.156760 2.681630 12.867677 -2.122508 -26.615215 15.475100 12.446900 -6.530100 2.000000 -2.000000 0.000000 90.611801 164.940994 -8.053120 38.135201 -0.322384 0.084483 0.049954 -0.040972 -151.716995 -2.000000 2.000000 0.000000 -60.174400 109.115997 63.583000 -45.605900 0.310495 0.097694 179.886993 179.876007 -7.663840 -9.585701 3.699868 -3.490013 30.567825 3.121951 2.147817 -16.517405 -5.309277 -1.942349 -4.526542 6.565221 -5.085412 23.542551 -2.902493 -1.817943 -15.455712 -11.604763 -4.324957 
3.374303 45.819660 -0.813082 -1.394340 -5.994330 11.180000 -22.868000 3.931140 4.824390 14.619000 0.398243 2.888270 12.539450 -2.142692 -26.831409 15.135500 12.241000 -6.812060 2.000000 -2.000000 0.000000 91.578102 164.382996 -7.693070 38.232800 -0.322240 0.084666 0.050166 -0.041764 -152.009995 -2.000000 2.000000 0.000000 -59.541302 109.666000 66.074402 -45.332500 0.310960 0.097236 179.889999 179.878006 -6.179480 -9.784899 3.872284 -3.740245 30.598141 3.116667 2.155823 -16.544605 -5.631430 -2.068061 -4.400838 6.794584 -5.072968 23.194921 -2.843557 -1.802118 -15.458274 -12.078350 -4.507118 
3.375471 45.818752 -0.800375 -1.414010 -6.004040 11.719400 -22.917200 3.918980 5.071440 14.541000 0.262220 3.009480 12.640070 -1.916520 -26.839046 15.030400 12.351100 -6.802980 2.000000 -2.000000 0.000000 91.753899 164.315994 -8.074090 38.056999 -0.322499 0.084336 0.049597 -0.039595 -151.209000 -2.000000 2.000000 0.000000 -58.124901 110.049004 68.584297 -44.619598 0.312162 0.096033 179.893997 179.882004 -4.421650 -9.922644 3.807962 -4.154372 30.644842 3.138078 2.151180 -16.485920 -5.770470 -2.119693 -4.418257 6.846359 -5.268985 23.249887 -2.875055 -1.797229 -15.549411 -12.340755 -4.620332 
3.376640 45.817863 -0.787667 -1.423850 -6.013780 12.257800 -22.975599 3.910150 5.327520 14.472600 0.135949 3.130040 12.760006 -1.696947 -26.851439 14.935600 12.470400 -6.782700 2.000000 -2.000000 0.000000 -88.070198 15.751500 171.554993 37.881199 -0.322757 0.084005 0.049065 -0.037445 -150.417999 -2.000000 2.000000 0.000000 -56.776199 110.450996 71.016800 -43.916500 0.313333 0.094831 179.897003 179.875000 -2.663830 -10.009329 3.766800 -4.569922 30.645161 3.134624 2.150203 -16.445879 -5.876645 -2.176279 -4.354975 6.883474 -5.424942 23.154146 -2.855985 -1.804663 -15.598683 -12.601996 -4.737385 
3.378729 45.827366 -0.782597 -1.355120 -6.013950 12.709600 -23.093100 3.810500 5.535780 14.375000 -0.077671 3.231070 12.781000 -1.669902 -26.771667 14.785300 12.467200 -6.796580 2.000000 -2.000000 0.000000 -87.884903 15.976300 171.651993 38.105900 -0.322427 0.084428 0.049324 -0.038508 -150.807999 -2.000000 2.000000 0.000000 -55.660301 110.912003 73.234497 -43.252399 0.314425 0.093684 179.906006 179.884003 1.760000 -10.129466 3.756922 -4.702103 30.606836 3.124528 2.148078 -16.443401 -6.138822 -2.276759 -4.426342 6.872530 -5.649578 23.172905 -2.863880 -1.805869 -15.689146 -12.716592 -4.812171 
3.380807 45.836746 -0.777529 -1.286360 -6.004360 13.171000 -23.210600 3.711110 5.744700 14.267500 -0.300912 3.324180 12.807887 -1.626925 -26.684305 14.635400 12.473500 -6.801020 2.000000 -2.000000 0.000000 -87.699501 16.191401 171.748993 38.330502 -0.322096 0.084849 0.049590 -0.039569 -151.199005 -2.000000 2.000000 0.000000 -54.611900 111.391998 75.383904 -42.578499 0.315520 0.092506 179.912994 179.904007 6.193570 -10.298319 3.727320 -4.840750 30.588545 3.114227 2.155368 -16.430450 -6.399467 -2.354720 -4.456542 6.854283 -5.848702 23.135614 -2.849602 -1.813890 -15.754269 -12.849088 -4.883920 
3.395614 45.837780 -0.745405 -1.286040 -5.867670 13.607400 -23.781900 3.558090 6.286280 13.749400 -0.756350 3.576600 12.353332 -1.245283 -26.441772 13.794800 12.478200 -7.046100 2.000000 -2.000000 0.000000 93.246399 162.496994 -7.111450 38.633202 -0.321646 0.085414 0.050223 -0.041975 -152.087997 -2.000000 2.000000 0.000000 -55.869999 112.591003 72.667603 -41.133202 0.317821 0.089937 -0.086868 0.092039 -167.770996 -10.262444 3.581396 -4.915853 30.481668 3.098364 2.142790 -16.371603 -6.732957 -2.469442 -4.393939 6.676749 -6.244521 23.180326 -2.877774 -1.789020 -15.932173 -12.794875 -4.911047 
3.410420 45.838669 -0.713280 -1.285700 -5.721230 14.053300 -24.352100 3.416430 6.830630 13.230800 -1.210740 3.837250 11.895643 -0.852784 -26.200272 12.954400 12.489800 -7.299110 2.000000 -2.000000 0.000000 94.221603 161.195999 -5.942520 38.926201 -0.321208 0.085959 0.050892 -0.044372 -152.975998 -2.000000 2.000000 0.000000 -56.925400 113.809998 70.146301 -39.687901 0.320057 0.087311 -0.078992 0.067360 -161.746002 -10.202992 3.437080 -4.982698 30.344942 3.091344 2.142660 -16.321568 -7.082845 -2.582634 -4.315144 6.485692 -6.630039 23.159788 -2.885180 -1.790707 -16.059477 -12.746087 -4.956528 
3.409498 45.834175 -0.704320 -1.334910 -5.779690 14.372100 -24.127600 3.447880 6.830710 13.436000 -1.182220 3.839050 12.251577 -1.275078 -26.304598 13.392700 12.435400 -7.161500 2.000000 -2.000000 0.000000 93.821701 161.695007 -6.302720 38.916401 -0.321223 0.085941 0.061058 -0.055503 -153.483994 -2.000000 2.000000 0.000000 -59.355000 112.786003 72.315102 -41.455502 0.317314 0.090515 -0.076380 0.061400 -159.421997 -10.334139 3.474332 -5.193532 30.519106 3.113899 2.136630 -16.378841 -7.219825 -2.641116 -4.251308 6.586247 -6.717305 23.129107 -2.891793 -1.782691 -16.167387 -12.874086 -5.031522 
3.408578 45.829548 -0.695358 -1.384110 -5.828390 14.680900 -23.893801 3.476060 6.822010 13.631400 -1.153630 3.841250 12.604962 -1.688002 -26.408140 13.821300 12.390400 -7.025070 2.000000 -2.000000 0.000000 93.421799 162.184006 -6.662940 38.906700 -0.321238 0.085923 0.061461 -0.056838 -153.981995 -2.000000 2.000000 0.000000 -61.794998 111.742996 74.445503 -43.232899 0.314457 0.093650 -0.074012 0.055338 -157.097000 -10.351989 3.540370 -5.390679 30.549578 3.106863 2.144137 -16.399920 -7.359963 -2.709358 -4.124055 6.683146 -6.795972 22.974470 -2.868387 -1.780374 -16.200924 -12.996096 -5.103184 
3.402983 45.828007 -0.671299 -1.433390 -5.906370 14.922100 -24.003401 3.432540 7.181450 13.611200 -1.415320 4.020000 12.192963 -1.727164 -26.395388 13.523700 12.199100 -7.210970 2.000000 -2.000000 0.000000 93.909599 161.917999 -5.794400 38.965199 -0.321150 0.086032 0.061975 -0.048716 -154.598007 -2.000000 2.000000 0.000000 -63.719299 111.801003 72.921402 -43.086399 0.314696 0.093395 -0.059322 0.039436 -151.149994 -10.364682 3.669373 -5.433181 30.619974 3.096700 2.160093 -16.470322 -7.585041 -2.795699 -4.043781 6.849031 -6.800491 22.952269 -2.886439 -1.774446 -16.272911 -13.172371 -5.179960 
3.397400 45.826469 -0.647239 -1.492510 -5.984310 15.164600 -24.112499 3.398130 7.536960 13.590700 -1.686680 4.200100 11.783019 -1.785806 -26.387100 13.217100 12.017100 -7.383560 2.000000 -2.000000 0.000000 94.397499 161.662003 -4.916070 39.023800 -0.321062 0.086140 0.062516 -0.050381 -155.223007 -2.000000 2.000000 0.000000 -65.644096 111.887001 71.406898 -42.949600 0.314919 0.093156 -0.056076 0.023137 -145.212997 -10.389879 3.807011 -5.436131 30.657871 3.111531 2.163538 -16.510885 -7.834038 -2.860121 -3.897219 7.007922 -6.796264 22.796772 -2.870312 -1.773552 -16.307596 -13.342988 -5.256904 
3.397692 45.822872 -0.631959 -1.472740 -5.935550 15.180800 -24.215900 3.308730 7.801090 13.501800 -1.938350 4.321730 11.882964 -1.832557 -26.464899 13.217100 12.017100 -7.412860 2.000000 -2.000000 0.000000 94.709801 161.417999 -4.848260 38.808998 -0.321384 0.085742 0.062042 -0.048925 -154.675995 -2.000000 2.000000 0.000000 -68.349800 111.720001 70.049599 -43.672298 0.313736 0.094411 -0.054684 0.009566 -140.339996 -10.406560 3.714523 -5.598976 30.687237 3.108010 2.152457 -16.478039 -7.784068 -2.852125 -3.889919 6.942370 -6.797156 22.807301 -2.864480 -1.772319 -16.262304 -13.372557 -5.246287 
3.397984 45.819267 -0.616681 -1.452950 -5.877030 15.196900 -24.309299 3.219580 8.065290 13.403000 -2.189870 4.444500 11.999238 -1.874566 -26.557274 13.207100 12.017400 -7.434420 2.000000 -2.000000 0.000000 95.012299 161.182999 -4.780440 38.603901 -0.321690 0.085360 0.061582 -0.047464 -154.128998 -2.000000 2.000000 0.000000 -71.084801 111.582001 68.672096 -44.385201 0.312554 0.095634 -0.054451 -0.004101 -135.457001 -10.317932 3.650093 -5.737750 30.608648 3.113334 2.164537 -16.463076 -7.770728 -2.842813 -3.936681 6.888023 -6.824591 22.902493 -2.891380 -1.776088 -16.265606 -13.408996 -5.233251 
3.398860 45.816956 -0.617967 -1.453080 -5.925840 14.856300 -23.831100 3.309500 7.493840 13.825100 -1.706910 4.156430 12.705795 -2.542528 -26.292713 14.026300 12.016500 -6.965890 2.000000 -2.000000 0.000000 93.548599 161.968994 -6.614600 38.515999 -0.321821 0.085196 0.061728 -0.047934 -154.304993 -2.000000 2.000000 0.000000 -72.203796 109.886002 72.678001 -46.826599 0.308392 0.099709 -0.054565 -0.007326 -134.304993 -10.295204 3.703740 -5.584046 30.668335 3.104381 2.161554 -16.478674 -7.597622 -2.781477 -3.968152 6.920613 -6.632339 22.905283 -2.871172 -1.781884 -16.251457 -13.251416 -5.188399 
3.399747 45.814640 -0.619254 -1.443390 -5.974680 14.504900 -23.351200 3.401130 6.926830 14.236800 -1.232700 3.876720 13.409054 -3.206326 -26.031244 14.845600 12.013000 -6.487230 2.000000 -2.000000 0.000000 -87.875999 17.196800 171.580994 38.428101 -0.321951 0.085032 0.061876 -0.048404 -154.479996 -2.000000 2.000000 0.000000 -73.025200 108.169998 76.938004 -49.268002 0.304060 0.103604 -0.054747 -0.010575 -133.143005 -10.298554 3.737722 -5.418368 30.695505 3.124887 2.156785 -16.467529 -7.435822 -2.712826 -4.008809 6.946820 -6.431809 22.973858 -2.876932 -1.791785 -16.302767 -13.094793 -5.140790 
